<svg width="5667" height="1471" viewBox="0 0 5667 1471" fill="none" xmlns="http://www.w3.org/2000/svg">
<path fill-rule="evenodd" clip-rule="evenodd" d="M1131.67 490.075L848.755 0L565.837 490.075H1131.67ZM1133.13 492.602L848.755 980.15H1414.59L1133.13 492.602ZM1417.51 985.203L1134.6 1470.23L848.755 980.151L848.754 980.15L564.378 492.602L282.919 980.15H848.752L562.902 1470.23L280.001 985.205L0 1470.23H1697.51L1417.51 985.203Z" fill="white"/>
<g clip-path="url(#clip0_91_8919)">
<path d="M2350.01 1470.23H2186.89V654.596H2023.76V519.359H2186.89V273.969L2295.64 165.218H2567.52V301.156H2350.01V519.359H2567.52V654.596H2350.01V1470.23Z" fill="white"/>
<path d="M2839.39 1470.23H2676.27V519.36H2839.39V639.768L2948.14 519.36H3165.65V654.597H2948.14L2839.39 776.942V1470.23Z" fill="white"/>
<path d="M3981.28 627.41V1470.23H3872.53V1367.53L3763.78 1470.23H3383.15L3274.4 1361.48V1035.23L3383.15 926.474H3818.15V654.597H3437.52V817.724H3274.4V627.41L3383.15 519.36H3872.53L3981.28 627.41ZM3818.15 1035.23H3437.52V1346.28H3736.59L3818.15 1266.32V1035.23Z" fill="white"/>
<path d="M4633.78 1307.32V1089.6H4796.91V1346.28L4682.04 1470.23H4225.96L4090.03 1346.28V627.41L4198.78 519.36H4682.04L4796.91 641.538V872.099H4633.78V680.494H4253.59V1307.32H4633.78Z" fill="white"/>
<path d="M2350.01 1470.23H2186.89V654.596H2023.76V519.359H2186.89V273.969L2295.64 165.218H2567.52V301.156H2350.01V519.359H2567.52V654.596H2350.01V1470.23Z" fill="white"/>
<path d="M2839.39 1470.23H2676.27V519.359H2839.39V639.767L2948.14 519.359H3165.64V654.596H2948.14L2839.39 776.941V1470.23Z" fill="white"/>
<path d="M3981.28 627.409V1470.23H3872.52V1367.53L3763.77 1470.23H3383.15L3274.4 1361.48V1035.22L3383.15 926.473H3818.15V654.596H3437.52V817.723H3274.4V627.409L3383.15 519.359H3872.52L3981.28 627.409ZM3818.15 1035.22H3437.52V1346.28H3736.59L3818.15 1266.32V1035.22Z" fill="white"/>
<path d="M4633.78 1307.32V1089.6H4796.91V1346.28L4682.04 1470.23H4225.96L4090.03 1346.28V627.409L4198.78 519.359H4682.04L4796.91 641.537V872.098H4633.78V680.493H4253.59V1307.32H4633.78Z" fill="white"/>
<path d="M5395.04 1470.23H5138.85L5014.41 1346.28V654.596H4905.66V519.359H5014.41V273.969L5123.18 165.218H5177.56V519.359H5395.04V654.596H5177.56V1303.78H5395.04V1470.23Z" fill="white"/>
<path d="M5666.91 1470.23H5502.73V165.218H5666.91V1470.23Z" fill="white"/>
<path d="M5666.91 1470.23H5502.73V165.218H5666.91V1470.23Z" fill="white"/>
</g>
<defs>
<clipPath id="clip0_91_8919">
<rect width="3643.15" height="1305.01" fill="white" transform="translate(2023.76 165.218)"/>
</clipPath>
</defs>
</svg>
